<?xml version="1.0" encoding="UTF-8"?>
<svg width="32px" height="32px" viewBox="0 0 32 32" version="1.1" xmlns="http://www.w3.org/2000/svg" xmlns:xlink="http://www.w3.org/1999/xlink">
    <!-- Generator: Sketch 57.1 (83088) - https://sketch.com -->
    <title>Icon Path</title>
    <desc>Created with Sketch.</desc>
    <g id="Dashboard---Home" stroke="none" stroke-width="1" fill="none" fill-rule="evenodd">
        <g id="Sign-up-form" transform="translate(-950.000000, -1160.000000)" fill="#3B5998" fill-rule="nonzero">
            <g id="Ad-platforms" transform="translate(658.000000, 1160.000000)">
                <g id="Group" transform="translate(262.000000, 0.000000)">
                    <path d="M45.9993333,0 C37.1629651,0 30,7.16296512 30,16.0006667 C30,23.9849994 35.8509105,30.6039418 43.4992291,31.8039918 L43.4992291,20.6248594 L39.4377266,20.6248594 L39.4377266,15.9993333 L43.4992291,15.9993333 L43.4992291,12.4751865 C43.4992291,8.46435268 45.888662,6.24959373 49.5421476,6.24959373 C51.2928872,6.24959373 53.1236302,6.56160673 53.1236302,6.56160673 L53.1236302,10.4991041 L51.1075461,10.4991041 C49.1207967,10.4991041 48.5007709,11.7324889 48.5007709,12.9978749 L48.5007709,16.0006667 L52.9382891,16.0006667 L52.2289262,20.6261928 L48.5007709,20.6261928 L48.5007709,31.8053252 C56.1490895,30.6052752 62,23.9863328 62,16.0006667 C61.9986666,7.16296512 54.8357015,0 45.9993333,0 Z" id="Icon-Path"></path>
                </g>
            </g>
        </g>
    </g>
</svg>