<?xml version="1.0" encoding="UTF-8"?>
<svg width="28px" height="28px" viewBox="0 0 28 28" version="1.1" xmlns="http://www.w3.org/2000/svg" xmlns:xlink="http://www.w3.org/1999/xlink">
    <!-- Generator: Sketch 57.1 (83088) - https://sketch.com -->
    <title>Icon Shape</title>
    <desc>Created with Sketch.</desc>
    <g id="Dashboard---Home" stroke="none" stroke-width="1" fill="none" fill-rule="evenodd">
        <g id="Sign-up-form" transform="translate(-1365.000000, -1278.000000)" fill="#EA4335" fill-rule="nonzero">
            <g id="Budget-Split" transform="translate(658.000000, 1276.000000)">
                <path d="M721,2 C713.26875,2 707,8.26875 707,16 C707,23.73125 713.26875,30 721,30 C728.73125,30 735,23.73125 735,16 C735,8.26875 728.73125,2 721,2 Z M726.21875,21.8 C724.95,22.96875 723.21875,23.65625 721.153125,23.65625 C718.1625,23.65625 715.575,21.940625 714.315625,19.440625 C713.796875,18.40625 713.5,17.2375 713.5,16 C713.5,14.7625 713.796875,13.59375 714.315625,12.559375 C715.575,10.05625 718.1625,8.340625 721.153125,8.340625 C723.215625,8.340625 724.946875,9.1 726.275,10.334375 L724.08125,12.53125 C723.2875,11.771875 722.278125,11.3875 721.15625,11.3875 C719.1625,11.3875 717.475,12.734375 716.871875,14.54375 C716.71875,15.003125 716.63125,15.49375 716.63125,16 C716.63125,16.50625 716.71875,16.996875 716.871875,17.45625 C717.475,19.265625 719.1625,20.6125 721.153125,20.6125 C722.184375,20.6125 723.059375,20.340625 723.74375,19.88125 C724.55625,19.3375 725.09375,18.528125 725.271875,17.56875 L721.153125,17.56875 L721.153125,14.60625 L728.3625,14.60625 C728.453125,15.109375 728.5,15.63125 728.5,16.171875 C728.5,18.50625 727.665625,20.465625 726.21875,21.8 L726.21875,21.8 Z" id="Icon-Shape"></path>
            </g>
        </g>
    </g>
</svg>