<?xml version="1.0" encoding="UTF-8"?>
<svg width="20px" height="19px" viewBox="0 0 20 19" version="1.1" xmlns="http://www.w3.org/2000/svg" xmlns:xlink="http://www.w3.org/1999/xlink">
    <!-- Generator: Sketch 57.1 (83088) - https://sketch.com -->
    <title>warning</title>
    <desc>Created with Sketch.</desc>
    <g id="Dashboard---Home" stroke="none" stroke-width="1" fill="none" fill-rule="evenodd">
        <g id="Sign-up-form" transform="translate(-921.000000, -1224.000000)" fill="#ED5F5F" fill-rule="nonzero">
            <g id="Editor-Access" transform="translate(659.000000, 1224.000000)">
                <g id="warning" transform="translate(262.000000, 0.000000)">
                    <path d="M10.0077853,13.3333333 C9.64088342,13.3333333 9.33333333,13.6373333 9.33333333,14 C9.33333333,14.3626667 9.64088342,14.6666667 10.0077853,14.6666667 C10.3611981,14.6666667 10.6822372,14.3626667 10.6660504,14.016 C10.6822372,13.6346667 10.377385,13.3333333 10.0077853,13.3333333 Z" id="Path"></path>
                    <path d="M19.5133129,16.836519 C20.1587882,15.6989731 20.1628995,14.3431527 19.5215355,13.2098044 L13.083228,1.82595008 C12.4459753,0.680008995 11.2948092,0 10.0038586,0 C8.71290807,0 7.56174197,0.684206581 6.92448931,1.82175249 L0.477959138,13.2181995 C-0.163404833,14.3641406 -0.159293526,15.7283562 0.49029306,16.8659021 C1.13165703,17.9908553 2.27871183,18.6666667 3.56143977,18.6666667 L16.4216096,18.6666667 C17.7084489,18.6666667 18.8637263,17.9824601 19.5133129,16.836519 Z M18.1154683,16.0137921 C17.7577846,16.64343 17.1246432,17.0170152 16.4174983,17.0170152 L3.55732846,17.0170152 C2.85840618,17.0170152 2.22937614,16.6518252 1.879915,16.03478 C1.52634255,15.4093396 1.52223124,14.6621693 1.87580369,14.0325313 L8.32233386,2.64028184 C8.671795,2.01484147 9.29671374,1.64545386 10.0038586,1.64545386 C10.7068922,1.64545386 11.3359223,2.01903905 11.6853834,2.64447942 L18.1278023,14.0367289 C18.4731521,14.6495765 18.4690408,15.3883517 18.1154683,16.0137921 Z" id="Shape"></path>
                    <path d="M9.84290429,5.36290653 C9.52871287,5.50536939 9.33333333,5.9578985 9.33333333,6.50679953 C9.34917492,6.83781619 9.36237624,7.17302293 9.37821782,7.50403959 C9.42310231,8.76525495 9.4679868,10.0013298 9.51287129,11.2625452 C9.52871287,11.6899338 9.73729373,12 10.0066007,12 C10.2759076,12 10.4871287,11.6689833 10.50033,11.2374047 C10.50033,10.9776194 10.50033,10.7387846 10.5161716,10.4748093 C10.5452145,9.66612307 10.5768977,8.8574368 10.6059406,8.04875054 C10.6217822,7.52499001 10.6508251,7.00122948 10.6666667,6.47746894 C10.6666667,6.28891515 10.6508251,6.12131178 10.6059406,5.95370841 C10.4712871,5.48441897 10.1570957,5.24558417 9.84290429,5.36290653 Z" id="Path"></path>
                </g>
            </g>
        </g>
    </g>
</svg>